<mxfile host="app.diagrams.net" agent="Mozilla/5.0 (Windows NT 10.0; Win64; x64) AppleWebKit/537.36 (KHTML, like Gecko) Chrome/138.0.0.0 Safari/537.36 Edg/138.0.0.0" version="28.0.7">
  <diagram name="第 1 页" id="Tok3xOCYxD7B_LSYUCv_">
    <mxGraphModel dx="1861" dy="666" grid="1" gridSize="10" guides="1" tooltips="1" connect="1" arrows="1" fold="1" page="1" pageScale="1" pageWidth="827" pageHeight="1169" math="0" shadow="0">
      <root>
        <mxCell id="0" />
        <mxCell id="1" parent="0" />
        <mxCell id="kA3QzVCFTja8NUtXptVE-20" value="(用户操作)" style="edgeStyle=orthogonalEdgeStyle;rounded=0;orthogonalLoop=1;jettySize=auto;html=1;" edge="1" parent="1" source="kA3QzVCFTja8NUtXptVE-6" target="kA3QzVCFTja8NUtXptVE-15">
          <mxGeometry relative="1" as="geometry" />
        </mxCell>
        <mxCell id="kA3QzVCFTja8NUtXptVE-6" value="用户" style="swimlane;fontStyle=1;align=center;verticalAlign=top;childLayout=stackLayout;horizontal=1;startSize=26;horizontalStack=0;resizeParent=1;resizeParentMax=0;resizeLast=0;collapsible=1;marginBottom=0;whiteSpace=wrap;html=1;" vertex="1" parent="1">
          <mxGeometry x="100" y="110" width="160" height="138" as="geometry" />
        </mxCell>
        <mxCell id="kA3QzVCFTja8NUtXptVE-7" value="私钥_" style="text;strokeColor=none;fillColor=none;align=left;verticalAlign=top;spacingLeft=4;spacingRight=4;overflow=hidden;rotatable=0;points=[[0,0.5],[1,0.5]];portConstraint=eastwest;whiteSpace=wrap;html=1;" vertex="1" parent="kA3QzVCFTja8NUtXptVE-6">
          <mxGeometry y="26" width="160" height="26" as="geometry" />
        </mxCell>
        <mxCell id="kA3QzVCFTja8NUtXptVE-8" value="" style="line;strokeWidth=1;fillColor=none;align=left;verticalAlign=middle;spacingTop=-1;spacingLeft=3;spacingRight=3;rotatable=0;labelPosition=right;points=[];portConstraint=eastwest;strokeColor=inherit;" vertex="1" parent="kA3QzVCFTja8NUtXptVE-6">
          <mxGeometry y="52" width="160" height="8" as="geometry" />
        </mxCell>
        <mxCell id="kA3QzVCFTja8NUtXptVE-9" value="公钥" style="text;strokeColor=none;fillColor=none;align=left;verticalAlign=top;spacingLeft=4;spacingRight=4;overflow=hidden;rotatable=0;points=[[0,0.5],[1,0.5]];portConstraint=eastwest;whiteSpace=wrap;html=1;" vertex="1" parent="kA3QzVCFTja8NUtXptVE-6">
          <mxGeometry y="60" width="160" height="26" as="geometry" />
        </mxCell>
        <mxCell id="kA3QzVCFTja8NUtXptVE-12" value="私钥_" style="text;strokeColor=none;fillColor=none;align=left;verticalAlign=top;spacingLeft=4;spacingRight=4;overflow=hidden;rotatable=0;points=[[0,0.5],[1,0.5]];portConstraint=eastwest;whiteSpace=wrap;html=1;" vertex="1" parent="kA3QzVCFTja8NUtXptVE-6">
          <mxGeometry y="86" width="160" height="26" as="geometry" />
        </mxCell>
        <mxCell id="kA3QzVCFTja8NUtXptVE-117" value="公钥作品id" style="text;strokeColor=none;fillColor=none;align=left;verticalAlign=top;spacingLeft=4;spacingRight=4;overflow=hidden;rotatable=0;points=[[0,0.5],[1,0.5]];portConstraint=eastwest;whiteSpace=wrap;html=1;" vertex="1" parent="kA3QzVCFTja8NUtXptVE-6">
          <mxGeometry y="112" width="160" height="26" as="geometry" />
        </mxCell>
        <mxCell id="kA3QzVCFTja8NUtXptVE-32" value="" style="edgeStyle=orthogonalEdgeStyle;rounded=0;orthogonalLoop=1;jettySize=auto;html=1;" edge="1" parent="1" source="kA3QzVCFTja8NUtXptVE-15" target="kA3QzVCFTja8NUtXptVE-33">
          <mxGeometry relative="1" as="geometry">
            <mxPoint x="240" y="570" as="targetPoint" />
          </mxGeometry>
        </mxCell>
        <mxCell id="kA3QzVCFTja8NUtXptVE-15" value="消息(JSON)" style="swimlane;fontStyle=1;align=center;verticalAlign=top;childLayout=stackLayout;horizontal=1;startSize=26;horizontalStack=0;resizeParent=1;resizeParentMax=0;resizeLast=0;collapsible=1;marginBottom=0;whiteSpace=wrap;html=1;" vertex="1" parent="1">
          <mxGeometry x="540" y="160" width="160" height="112" as="geometry" />
        </mxCell>
        <mxCell id="kA3QzVCFTja8NUtXptVE-17" value="" style="line;strokeWidth=1;fillColor=none;align=left;verticalAlign=middle;spacingTop=-1;spacingLeft=3;spacingRight=3;rotatable=0;labelPosition=right;points=[];portConstraint=eastwest;strokeColor=inherit;" vertex="1" parent="kA3QzVCFTja8NUtXptVE-15">
          <mxGeometry y="26" width="160" height="8" as="geometry" />
        </mxCell>
        <mxCell id="kA3QzVCFTja8NUtXptVE-18" value="时间戳" style="text;strokeColor=none;fillColor=none;align=left;verticalAlign=top;spacingLeft=4;spacingRight=4;overflow=hidden;rotatable=0;points=[[0,0.5],[1,0.5]];portConstraint=eastwest;whiteSpace=wrap;html=1;" vertex="1" parent="kA3QzVCFTja8NUtXptVE-15">
          <mxGeometry y="34" width="160" height="26" as="geometry" />
        </mxCell>
        <mxCell id="kA3QzVCFTja8NUtXptVE-19" value="消息文本" style="text;strokeColor=none;fillColor=none;align=left;verticalAlign=top;spacingLeft=4;spacingRight=4;overflow=hidden;rotatable=0;points=[[0,0.5],[1,0.5]];portConstraint=eastwest;whiteSpace=wrap;html=1;" vertex="1" parent="kA3QzVCFTja8NUtXptVE-15">
          <mxGeometry y="60" width="160" height="26" as="geometry" />
        </mxCell>
        <mxCell id="kA3QzVCFTja8NUtXptVE-21" value="发送人" style="text;strokeColor=none;fillColor=none;align=left;verticalAlign=top;spacingLeft=4;spacingRight=4;overflow=hidden;rotatable=0;points=[[0,0.5],[1,0.5]];portConstraint=eastwest;whiteSpace=wrap;html=1;" vertex="1" parent="kA3QzVCFTja8NUtXptVE-15">
          <mxGeometry y="86" width="160" height="26" as="geometry" />
        </mxCell>
        <mxCell id="kA3QzVCFTja8NUtXptVE-40" value="" style="edgeStyle=orthogonalEdgeStyle;rounded=0;orthogonalLoop=1;jettySize=auto;html=1;" edge="1" parent="1" source="kA3QzVCFTja8NUtXptVE-33" target="kA3QzVCFTja8NUtXptVE-38">
          <mxGeometry relative="1" as="geometry" />
        </mxCell>
        <mxCell id="kA3QzVCFTja8NUtXptVE-44" style="edgeStyle=orthogonalEdgeStyle;rounded=0;orthogonalLoop=1;jettySize=auto;html=1;exitX=0;exitY=0.5;exitDx=0;exitDy=0;" edge="1" parent="1" source="kA3QzVCFTja8NUtXptVE-33" target="kA3QzVCFTja8NUtXptVE-42">
          <mxGeometry relative="1" as="geometry" />
        </mxCell>
        <mxCell id="kA3QzVCFTja8NUtXptVE-33" value="JSON字符串" style="html=1;whiteSpace=wrap;" vertex="1" parent="1">
          <mxGeometry x="530" y="360" width="110" height="50" as="geometry" />
        </mxCell>
        <mxCell id="kA3QzVCFTja8NUtXptVE-59" value="" style="edgeStyle=orthogonalEdgeStyle;rounded=0;orthogonalLoop=1;jettySize=auto;html=1;" edge="1" parent="1" source="kA3QzVCFTja8NUtXptVE-35" target="kA3QzVCFTja8NUtXptVE-57">
          <mxGeometry relative="1" as="geometry">
            <mxPoint x="760" y="533" as="targetPoint" />
          </mxGeometry>
        </mxCell>
        <mxCell id="kA3QzVCFTja8NUtXptVE-35" value="消息2.0(JSON)" style="swimlane;fontStyle=1;align=center;verticalAlign=top;childLayout=stackLayout;horizontal=1;startSize=26;horizontalStack=0;resizeParent=1;resizeParentMax=0;resizeLast=0;collapsible=1;marginBottom=0;whiteSpace=wrap;html=1;" vertex="1" parent="1">
          <mxGeometry x="650" y="460" width="160" height="86" as="geometry" />
        </mxCell>
        <mxCell id="kA3QzVCFTja8NUtXptVE-37" value="" style="line;strokeWidth=1;fillColor=none;align=left;verticalAlign=middle;spacingTop=-1;spacingLeft=3;spacingRight=3;rotatable=0;labelPosition=right;points=[];portConstraint=eastwest;strokeColor=inherit;" vertex="1" parent="kA3QzVCFTja8NUtXptVE-35">
          <mxGeometry y="26" width="160" height="8" as="geometry" />
        </mxCell>
        <mxCell id="kA3QzVCFTja8NUtXptVE-38" value="原消息" style="text;strokeColor=none;fillColor=none;align=left;verticalAlign=top;spacingLeft=4;spacingRight=4;overflow=hidden;rotatable=0;points=[[0,0.5],[1,0.5]];portConstraint=eastwest;whiteSpace=wrap;html=1;" vertex="1" parent="kA3QzVCFTja8NUtXptVE-35">
          <mxGeometry y="34" width="160" height="26" as="geometry" />
        </mxCell>
        <mxCell id="kA3QzVCFTja8NUtXptVE-41" value="签名" style="text;strokeColor=none;fillColor=none;align=left;verticalAlign=top;spacingLeft=4;spacingRight=4;overflow=hidden;rotatable=0;points=[[0,0.5],[1,0.5]];portConstraint=eastwest;whiteSpace=wrap;html=1;" vertex="1" parent="kA3QzVCFTja8NUtXptVE-35">
          <mxGeometry y="60" width="160" height="26" as="geometry" />
        </mxCell>
        <mxCell id="kA3QzVCFTja8NUtXptVE-46" value="" style="edgeStyle=orthogonalEdgeStyle;rounded=0;orthogonalLoop=1;jettySize=auto;html=1;exitX=0.5;exitY=1;exitDx=0;exitDy=0;dashed=1;" edge="1" parent="1" source="kA3QzVCFTja8NUtXptVE-42" target="kA3QzVCFTja8NUtXptVE-41">
          <mxGeometry relative="1" as="geometry">
            <mxPoint x="215" y="625" as="targetPoint" />
          </mxGeometry>
        </mxCell>
        <mxCell id="kA3QzVCFTja8NUtXptVE-42" value="签名" style="html=1;whiteSpace=wrap;" vertex="1" parent="1">
          <mxGeometry x="230" y="420" width="110" height="50" as="geometry" />
        </mxCell>
        <mxCell id="kA3QzVCFTja8NUtXptVE-43" style="edgeStyle=orthogonalEdgeStyle;rounded=0;orthogonalLoop=1;jettySize=auto;html=1;exitX=0;exitY=0.5;exitDx=0;exitDy=0;" edge="1" parent="1" source="kA3QzVCFTja8NUtXptVE-7" target="kA3QzVCFTja8NUtXptVE-42">
          <mxGeometry relative="1" as="geometry" />
        </mxCell>
        <mxCell id="kA3QzVCFTja8NUtXptVE-102" value="" style="edgeStyle=orthogonalEdgeStyle;rounded=0;orthogonalLoop=1;jettySize=auto;html=1;dashed=1;" edge="1" parent="1" source="kA3QzVCFTja8NUtXptVE-51" target="kA3QzVCFTja8NUtXptVE-101">
          <mxGeometry relative="1" as="geometry">
            <Array as="points">
              <mxPoint x="155" y="620" />
              <mxPoint x="155" y="620" />
            </Array>
          </mxGeometry>
        </mxCell>
        <mxCell id="kA3QzVCFTja8NUtXptVE-51" value="OSS储存" style="html=1;whiteSpace=wrap;" vertex="1" parent="1">
          <mxGeometry x="100" y="680" width="110" height="50" as="geometry" />
        </mxCell>
        <mxCell id="kA3QzVCFTja8NUtXptVE-100" value="" style="edgeStyle=orthogonalEdgeStyle;rounded=0;orthogonalLoop=1;jettySize=auto;html=1;" edge="1" parent="1" source="kA3QzVCFTja8NUtXptVE-52" target="kA3QzVCFTja8NUtXptVE-51">
          <mxGeometry relative="1" as="geometry">
            <mxPoint x="260" y="677" as="targetPoint" />
          </mxGeometry>
        </mxCell>
        <mxCell id="kA3QzVCFTja8NUtXptVE-52" value="文件" style="swimlane;fontStyle=1;align=center;verticalAlign=top;childLayout=stackLayout;horizontal=1;startSize=26;horizontalStack=0;resizeParent=1;resizeParentMax=0;resizeLast=0;collapsible=1;marginBottom=0;whiteSpace=wrap;html=1;" vertex="1" parent="1">
          <mxGeometry x="310" y="594" width="160" height="86" as="geometry" />
        </mxCell>
        <mxCell id="kA3QzVCFTja8NUtXptVE-54" value="" style="line;strokeWidth=1;fillColor=none;align=left;verticalAlign=middle;spacingTop=-1;spacingLeft=3;spacingRight=3;rotatable=0;labelPosition=right;points=[];portConstraint=eastwest;strokeColor=inherit;" vertex="1" parent="kA3QzVCFTja8NUtXptVE-52">
          <mxGeometry y="26" width="160" height="8" as="geometry" />
        </mxCell>
        <mxCell id="kA3QzVCFTja8NUtXptVE-56" value="文件内容" style="text;strokeColor=none;fillColor=none;align=left;verticalAlign=top;spacingLeft=4;spacingRight=4;overflow=hidden;rotatable=0;points=[[0,0.5],[1,0.5]];portConstraint=eastwest;whiteSpace=wrap;html=1;" vertex="1" parent="kA3QzVCFTja8NUtXptVE-52">
          <mxGeometry y="34" width="160" height="26" as="geometry" />
        </mxCell>
        <mxCell id="kA3QzVCFTja8NUtXptVE-62" value="文件名" style="text;strokeColor=none;fillColor=none;align=left;verticalAlign=top;spacingLeft=4;spacingRight=4;overflow=hidden;rotatable=0;points=[[0,0.5],[1,0.5]];portConstraint=eastwest;whiteSpace=wrap;html=1;" vertex="1" parent="kA3QzVCFTja8NUtXptVE-52">
          <mxGeometry y="60" width="160" height="26" as="geometry" />
        </mxCell>
        <mxCell id="kA3QzVCFTja8NUtXptVE-61" value="" style="edgeStyle=orthogonalEdgeStyle;rounded=0;orthogonalLoop=1;jettySize=auto;html=1;" edge="1" parent="1" source="kA3QzVCFTja8NUtXptVE-57" target="kA3QzVCFTja8NUtXptVE-56">
          <mxGeometry relative="1" as="geometry">
            <mxPoint x="550" y="695" as="targetPoint" />
          </mxGeometry>
        </mxCell>
        <mxCell id="kA3QzVCFTja8NUtXptVE-57" value="JSON字符串" style="html=1;whiteSpace=wrap;" vertex="1" parent="1">
          <mxGeometry x="675" y="656" width="110" height="50" as="geometry" />
        </mxCell>
        <mxCell id="kA3QzVCFTja8NUtXptVE-95" value="" style="edgeStyle=orthogonalEdgeStyle;rounded=0;orthogonalLoop=1;jettySize=auto;html=1;" edge="1" parent="1" source="kA3QzVCFTja8NUtXptVE-80" target="kA3QzVCFTja8NUtXptVE-62">
          <mxGeometry relative="1" as="geometry">
            <mxPoint x="210" y="812" as="targetPoint" />
          </mxGeometry>
        </mxCell>
        <mxCell id="kA3QzVCFTja8NUtXptVE-80" value="连接字符串" style="swimlane;fontStyle=0;childLayout=stackLayout;horizontal=1;startSize=26;fillColor=none;horizontalStack=0;resizeParent=1;resizeParentMax=0;resizeLast=0;collapsible=1;marginBottom=0;whiteSpace=wrap;html=1;" vertex="1" parent="1">
          <mxGeometry x="320" y="880" width="140" height="156" as="geometry" />
        </mxCell>
        <mxCell id="kA3QzVCFTja8NUtXptVE-86" value="随机4字符hex字符串" style="text;strokeColor=none;fillColor=none;align=left;verticalAlign=top;spacingLeft=4;spacingRight=4;overflow=hidden;rotatable=0;points=[[0,0.5],[1,0.5]];portConstraint=eastwest;whiteSpace=wrap;html=1;" vertex="1" parent="kA3QzVCFTja8NUtXptVE-80">
          <mxGeometry y="26" width="140" height="26" as="geometry" />
        </mxCell>
        <mxCell id="kA3QzVCFTja8NUtXptVE-81" value="&quot;.&quot;" style="text;strokeColor=none;fillColor=none;align=left;verticalAlign=top;spacingLeft=4;spacingRight=4;overflow=hidden;rotatable=0;points=[[0,0.5],[1,0.5]];portConstraint=eastwest;whiteSpace=wrap;html=1;" vertex="1" parent="kA3QzVCFTja8NUtXptVE-80">
          <mxGeometry y="52" width="140" height="26" as="geometry" />
        </mxCell>
        <mxCell id="kA3QzVCFTja8NUtXptVE-88" value="随机4字符hex字符串" style="text;strokeColor=none;fillColor=none;align=left;verticalAlign=top;spacingLeft=4;spacingRight=4;overflow=hidden;rotatable=0;points=[[0,0.5],[1,0.5]];portConstraint=eastwest;whiteSpace=wrap;html=1;" vertex="1" parent="kA3QzVCFTja8NUtXptVE-80">
          <mxGeometry y="78" width="140" height="26" as="geometry" />
        </mxCell>
        <mxCell id="kA3QzVCFTja8NUtXptVE-210" value="&quot;_&quot;" style="text;strokeColor=none;fillColor=none;align=left;verticalAlign=top;spacingLeft=4;spacingRight=4;overflow=hidden;rotatable=0;points=[[0,0.5],[1,0.5]];portConstraint=eastwest;whiteSpace=wrap;html=1;" vertex="1" parent="kA3QzVCFTja8NUtXptVE-80">
          <mxGeometry y="104" width="140" height="26" as="geometry" />
        </mxCell>
        <mxCell id="kA3QzVCFTja8NUtXptVE-209" value="当前时间戳" style="text;strokeColor=none;fillColor=none;align=left;verticalAlign=top;spacingLeft=4;spacingRight=4;overflow=hidden;rotatable=0;points=[[0,0.5],[1,0.5]];portConstraint=eastwest;whiteSpace=wrap;html=1;" vertex="1" parent="kA3QzVCFTja8NUtXptVE-80">
          <mxGeometry y="130" width="140" height="26" as="geometry" />
        </mxCell>
        <mxCell id="kA3QzVCFTja8NUtXptVE-108" value="" style="edgeStyle=orthogonalEdgeStyle;rounded=0;orthogonalLoop=1;jettySize=auto;html=1;" edge="1" parent="1" source="kA3QzVCFTja8NUtXptVE-101" target="kA3QzVCFTja8NUtXptVE-106">
          <mxGeometry relative="1" as="geometry">
            <mxPoint x="70" y="625" as="targetPoint" />
          </mxGeometry>
        </mxCell>
        <mxCell id="kA3QzVCFTja8NUtXptVE-101" value="OSS文件名" style="html=1;whiteSpace=wrap;" vertex="1" parent="1">
          <mxGeometry x="100" y="546" width="110" height="50" as="geometry" />
        </mxCell>
        <mxCell id="kA3QzVCFTja8NUtXptVE-111" value="" style="edgeStyle=orthogonalEdgeStyle;rounded=0;orthogonalLoop=1;jettySize=auto;html=1;" edge="1" parent="1" source="kA3QzVCFTja8NUtXptVE-103" target="kA3QzVCFTja8NUtXptVE-121">
          <mxGeometry relative="1" as="geometry" />
        </mxCell>
        <mxCell id="kA3QzVCFTja8NUtXptVE-141" value="" style="edgeStyle=orthogonalEdgeStyle;rounded=0;orthogonalLoop=1;jettySize=auto;html=1;" edge="1" parent="1" source="kA3QzVCFTja8NUtXptVE-103" target="kA3QzVCFTja8NUtXptVE-130">
          <mxGeometry relative="1" as="geometry">
            <mxPoint x="-230" y="370" as="targetPoint" />
          </mxGeometry>
        </mxCell>
        <mxCell id="kA3QzVCFTja8NUtXptVE-103" value="消息3.0(字符串)" style="swimlane;fontStyle=1;align=center;verticalAlign=top;childLayout=stackLayout;horizontal=1;startSize=26;horizontalStack=0;resizeParent=1;resizeParentMax=0;resizeLast=0;collapsible=1;marginBottom=0;whiteSpace=wrap;html=1;" vertex="1" parent="1">
          <mxGeometry x="-150" y="340" width="160" height="60" as="geometry" />
        </mxCell>
        <mxCell id="kA3QzVCFTja8NUtXptVE-105" value="" style="line;strokeWidth=1;fillColor=none;align=left;verticalAlign=middle;spacingTop=-1;spacingLeft=3;spacingRight=3;rotatable=0;labelPosition=right;points=[];portConstraint=eastwest;strokeColor=inherit;" vertex="1" parent="kA3QzVCFTja8NUtXptVE-103">
          <mxGeometry y="26" width="160" height="8" as="geometry" />
        </mxCell>
        <mxCell id="kA3QzVCFTja8NUtXptVE-106" value="文件名" style="text;strokeColor=none;fillColor=none;align=left;verticalAlign=top;spacingLeft=4;spacingRight=4;overflow=hidden;rotatable=0;points=[[0,0.5],[1,0.5]];portConstraint=eastwest;whiteSpace=wrap;html=1;" vertex="1" parent="kA3QzVCFTja8NUtXptVE-103">
          <mxGeometry y="34" width="160" height="26" as="geometry" />
        </mxCell>
        <mxCell id="kA3QzVCFTja8NUtXptVE-109" value="云变量" style="html=1;whiteSpace=wrap;" vertex="1" parent="1">
          <mxGeometry x="-125" y="640" width="110" height="50" as="geometry" />
        </mxCell>
        <mxCell id="kA3QzVCFTja8NUtXptVE-123" value="没有" style="edgeStyle=orthogonalEdgeStyle;rounded=0;orthogonalLoop=1;jettySize=auto;html=1;" edge="1" parent="1" source="kA3QzVCFTja8NUtXptVE-121" target="kA3QzVCFTja8NUtXptVE-109">
          <mxGeometry relative="1" as="geometry">
            <mxPoint x="-185" y="763.9999999999998" as="targetPoint" />
          </mxGeometry>
        </mxCell>
        <mxCell id="kA3QzVCFTja8NUtXptVE-145" value="有" style="edgeStyle=orthogonalEdgeStyle;rounded=0;orthogonalLoop=1;jettySize=auto;html=1;" edge="1" parent="1" source="kA3QzVCFTja8NUtXptVE-121" target="kA3QzVCFTja8NUtXptVE-129">
          <mxGeometry relative="1" as="geometry">
            <mxPoint x="-340" y="624.0000000000002" as="targetPoint" />
          </mxGeometry>
        </mxCell>
        <mxCell id="kA3QzVCFTja8NUtXptVE-121" value="群有设置密码?" style="html=1;whiteSpace=wrap;aspect=fixed;shape=isoRectangle;" vertex="1" parent="1">
          <mxGeometry x="-145" y="470" width="150" height="90" as="geometry" />
        </mxCell>
        <mxCell id="kA3QzVCFTja8NUtXptVE-124" value="群" style="swimlane;fontStyle=1;align=center;verticalAlign=top;childLayout=stackLayout;horizontal=1;startSize=26;horizontalStack=0;resizeParent=1;resizeParentMax=0;resizeLast=0;collapsible=1;marginBottom=0;whiteSpace=wrap;html=1;" vertex="1" parent="1">
          <mxGeometry x="-470" y="780" width="160" height="86" as="geometry" />
        </mxCell>
        <mxCell id="kA3QzVCFTja8NUtXptVE-125" value="密码(可能没有)" style="text;strokeColor=none;fillColor=none;align=left;verticalAlign=top;spacingLeft=4;spacingRight=4;overflow=hidden;rotatable=0;points=[[0,0.5],[1,0.5]];portConstraint=eastwest;whiteSpace=wrap;html=1;" vertex="1" parent="kA3QzVCFTja8NUtXptVE-124">
          <mxGeometry y="26" width="160" height="26" as="geometry" />
        </mxCell>
        <mxCell id="kA3QzVCFTja8NUtXptVE-126" value="" style="line;strokeWidth=1;fillColor=none;align=left;verticalAlign=middle;spacingTop=-1;spacingLeft=3;spacingRight=3;rotatable=0;labelPosition=right;points=[];portConstraint=eastwest;strokeColor=inherit;" vertex="1" parent="kA3QzVCFTja8NUtXptVE-124">
          <mxGeometry y="52" width="160" height="8" as="geometry" />
        </mxCell>
        <mxCell id="kA3QzVCFTja8NUtXptVE-127" value="云变量作品名" style="text;strokeColor=none;fillColor=none;align=left;verticalAlign=top;spacingLeft=4;spacingRight=4;overflow=hidden;rotatable=0;points=[[0,0.5],[1,0.5]];portConstraint=eastwest;whiteSpace=wrap;html=1;" vertex="1" parent="kA3QzVCFTja8NUtXptVE-124">
          <mxGeometry y="60" width="160" height="26" as="geometry" />
        </mxCell>
        <mxCell id="kA3QzVCFTja8NUtXptVE-148" style="edgeStyle=orthogonalEdgeStyle;rounded=0;orthogonalLoop=1;jettySize=auto;html=1;exitX=0.25;exitY=0;exitDx=0;exitDy=0;entryX=0;entryY=0.25;entryDx=0;entryDy=0;dashed=1;" edge="1" parent="1" source="kA3QzVCFTja8NUtXptVE-129" target="kA3QzVCFTja8NUtXptVE-109">
          <mxGeometry relative="1" as="geometry" />
        </mxCell>
        <mxCell id="kA3QzVCFTja8NUtXptVE-129" value="AES加密" style="swimlane;fontStyle=0;childLayout=stackLayout;horizontal=1;startSize=26;fillColor=none;horizontalStack=0;resizeParent=1;resizeParentMax=0;resizeLast=0;collapsible=1;marginBottom=0;whiteSpace=wrap;html=1;" vertex="1" parent="1">
          <mxGeometry x="-430" y="332" width="140" height="78" as="geometry" />
        </mxCell>
        <mxCell id="kA3QzVCFTja8NUtXptVE-130" value="内容" style="text;strokeColor=none;fillColor=none;align=left;verticalAlign=top;spacingLeft=4;spacingRight=4;overflow=hidden;rotatable=0;points=[[0,0.5],[1,0.5]];portConstraint=eastwest;whiteSpace=wrap;html=1;" vertex="1" parent="kA3QzVCFTja8NUtXptVE-129">
          <mxGeometry y="26" width="140" height="26" as="geometry" />
        </mxCell>
        <mxCell id="kA3QzVCFTja8NUtXptVE-133" value="密码" style="text;strokeColor=none;fillColor=none;align=left;verticalAlign=top;spacingLeft=4;spacingRight=4;overflow=hidden;rotatable=0;points=[[0,0.5],[1,0.5]];portConstraint=eastwest;whiteSpace=wrap;html=1;" vertex="1" parent="kA3QzVCFTja8NUtXptVE-129">
          <mxGeometry y="52" width="140" height="26" as="geometry" />
        </mxCell>
        <mxCell id="kA3QzVCFTja8NUtXptVE-135" style="edgeStyle=orthogonalEdgeStyle;rounded=0;orthogonalLoop=1;jettySize=auto;html=1;exitX=1;exitY=0.5;exitDx=0;exitDy=0;" edge="1" parent="1" source="kA3QzVCFTja8NUtXptVE-125" target="kA3QzVCFTja8NUtXptVE-133">
          <mxGeometry relative="1" as="geometry" />
        </mxCell>
        <mxCell id="kA3QzVCFTja8NUtXptVE-151" value="消息发送" style="shape=umlFrame;whiteSpace=wrap;html=1;pointerEvents=0;recursiveResize=0;container=1;collapsible=0;width=160;" vertex="1" parent="1">
          <mxGeometry x="-520" y="92" width="1380" height="958" as="geometry" />
        </mxCell>
        <mxCell id="kA3QzVCFTja8NUtXptVE-152" value="聊天室" style="shape=umlFrame;whiteSpace=wrap;html=1;pointerEvents=0;recursiveResize=0;container=1;collapsible=0;width=160;" vertex="1" parent="1">
          <mxGeometry x="920" y="93" width="1670" height="957" as="geometry" />
        </mxCell>
        <mxCell id="kA3QzVCFTja8NUtXptVE-161" value="学而思cpp作品" style="swimlane;fontStyle=1;align=center;verticalAlign=top;childLayout=stackLayout;horizontal=1;startSize=26;horizontalStack=0;resizeParent=1;resizeParentMax=0;resizeLast=0;collapsible=1;marginBottom=0;whiteSpace=wrap;html=1;" vertex="1" parent="kA3QzVCFTja8NUtXptVE-152">
          <mxGeometry x="15" y="157" width="160" height="86" as="geometry" />
        </mxCell>
        <mxCell id="kA3QzVCFTja8NUtXptVE-163" value="" style="line;strokeWidth=1;fillColor=none;align=left;verticalAlign=middle;spacingTop=-1;spacingLeft=3;spacingRight=3;rotatable=0;labelPosition=right;points=[];portConstraint=eastwest;strokeColor=inherit;" vertex="1" parent="kA3QzVCFTja8NUtXptVE-161">
          <mxGeometry y="26" width="160" height="8" as="geometry" />
        </mxCell>
        <mxCell id="kA3QzVCFTja8NUtXptVE-164" value="作品id: config.js预设" style="text;strokeColor=none;fillColor=none;align=left;verticalAlign=top;spacingLeft=4;spacingRight=4;overflow=hidden;rotatable=0;points=[[0,0.5],[1,0.5]];portConstraint=eastwest;whiteSpace=wrap;html=1;" vertex="1" parent="kA3QzVCFTja8NUtXptVE-161">
          <mxGeometry y="34" width="160" height="26" as="geometry" />
        </mxCell>
        <mxCell id="kA3QzVCFTja8NUtXptVE-166" value="评论列表" style="text;strokeColor=none;fillColor=none;align=left;verticalAlign=top;spacingLeft=4;spacingRight=4;overflow=hidden;rotatable=0;points=[[0,0.5],[1,0.5]];portConstraint=eastwest;whiteSpace=wrap;html=1;" vertex="1" parent="kA3QzVCFTja8NUtXptVE-161">
          <mxGeometry y="60" width="160" height="26" as="geometry" />
        </mxCell>
        <mxCell id="kA3QzVCFTja8NUtXptVE-171" value="评论内容" style="swimlane;fontStyle=0;childLayout=stackLayout;horizontal=1;startSize=26;fillColor=none;horizontalStack=0;resizeParent=1;resizeParentMax=0;resizeLast=0;collapsible=1;marginBottom=0;whiteSpace=wrap;html=1;" vertex="1" parent="kA3QzVCFTja8NUtXptVE-152">
          <mxGeometry x="50" y="297" width="140" height="104" as="geometry" />
        </mxCell>
        <mxCell id="kA3QzVCFTja8NUtXptVE-172" value="id" style="text;strokeColor=none;fillColor=none;align=left;verticalAlign=top;spacingLeft=4;spacingRight=4;overflow=hidden;rotatable=0;points=[[0,0.5],[1,0.5]];portConstraint=eastwest;whiteSpace=wrap;html=1;" vertex="1" parent="kA3QzVCFTja8NUtXptVE-171">
          <mxGeometry y="26" width="140" height="26" as="geometry" />
        </mxCell>
        <mxCell id="kA3QzVCFTja8NUtXptVE-173" value="内容" style="text;strokeColor=none;fillColor=none;align=left;verticalAlign=top;spacingLeft=4;spacingRight=4;overflow=hidden;rotatable=0;points=[[0,0.5],[1,0.5]];portConstraint=eastwest;whiteSpace=wrap;html=1;" vertex="1" parent="kA3QzVCFTja8NUtXptVE-171">
          <mxGeometry y="52" width="140" height="26" as="geometry" />
        </mxCell>
        <mxCell id="kA3QzVCFTja8NUtXptVE-174" value="回复列表" style="text;strokeColor=none;fillColor=none;align=left;verticalAlign=top;spacingLeft=4;spacingRight=4;overflow=hidden;rotatable=0;points=[[0,0.5],[1,0.5]];portConstraint=eastwest;whiteSpace=wrap;html=1;" vertex="1" parent="kA3QzVCFTja8NUtXptVE-171">
          <mxGeometry y="78" width="140" height="26" as="geometry" />
        </mxCell>
        <mxCell id="kA3QzVCFTja8NUtXptVE-175" value="列表中的某项" style="edgeStyle=orthogonalEdgeStyle;rounded=0;orthogonalLoop=1;jettySize=auto;html=1;strokeColor=default;" edge="1" parent="kA3QzVCFTja8NUtXptVE-152" source="kA3QzVCFTja8NUtXptVE-166" target="kA3QzVCFTja8NUtXptVE-171">
          <mxGeometry relative="1" as="geometry" />
        </mxCell>
        <mxCell id="kA3QzVCFTja8NUtXptVE-178" value="" style="edgeStyle=orthogonalEdgeStyle;rounded=0;orthogonalLoop=1;jettySize=auto;html=1;" edge="1" parent="kA3QzVCFTja8NUtXptVE-152" source="kA3QzVCFTja8NUtXptVE-176" target="kA3QzVCFTja8NUtXptVE-161">
          <mxGeometry relative="1" as="geometry">
            <mxPoint x="225" y="102" as="targetPoint" />
          </mxGeometry>
        </mxCell>
        <mxCell id="kA3QzVCFTja8NUtXptVE-176" value="聊天室大厅" style="html=1;whiteSpace=wrap;" vertex="1" parent="kA3QzVCFTja8NUtXptVE-152">
          <mxGeometry x="40" y="77" width="110" height="50" as="geometry" />
        </mxCell>
        <mxCell id="kA3QzVCFTja8NUtXptVE-182" style="edgeStyle=orthogonalEdgeStyle;rounded=0;orthogonalLoop=1;jettySize=auto;html=1;exitX=1;exitY=0.5;exitDx=0;exitDy=0;" edge="1" parent="kA3QzVCFTja8NUtXptVE-152" source="kA3QzVCFTja8NUtXptVE-174" target="kA3QzVCFTja8NUtXptVE-184">
          <mxGeometry relative="1" as="geometry">
            <mxPoint x="180" y="-63" as="targetPoint" />
          </mxGeometry>
        </mxCell>
        <mxCell id="kA3QzVCFTja8NUtXptVE-187" value="" style="edgeStyle=orthogonalEdgeStyle;rounded=0;orthogonalLoop=1;jettySize=auto;html=1;dashed=1;" edge="1" parent="kA3QzVCFTja8NUtXptVE-152" source="kA3QzVCFTja8NUtXptVE-184" target="kA3QzVCFTja8NUtXptVE-185">
          <mxGeometry relative="1" as="geometry">
            <mxPoint x="970" y="218.5" as="targetPoint" />
          </mxGeometry>
        </mxCell>
        <mxCell id="kA3QzVCFTja8NUtXptVE-184" value="某种将不会屏蔽的评论内容转为oss文件名的算法" style="shape=umlFrame;whiteSpace=wrap;html=1;pointerEvents=0;width=280;height=30;" vertex="1" parent="kA3QzVCFTja8NUtXptVE-152">
          <mxGeometry x="290" y="27" width="440" height="383" as="geometry" />
        </mxCell>
        <mxCell id="kA3QzVCFTja8NUtXptVE-190" value="get文件" style="edgeStyle=orthogonalEdgeStyle;rounded=0;orthogonalLoop=1;jettySize=auto;html=1;dashed=1;" edge="1" parent="kA3QzVCFTja8NUtXptVE-152" source="kA3QzVCFTja8NUtXptVE-185" target="kA3QzVCFTja8NUtXptVE-188">
          <mxGeometry relative="1" as="geometry" />
        </mxCell>
        <mxCell id="kA3QzVCFTja8NUtXptVE-185" value="oss文件名" style="html=1;whiteSpace=wrap;" vertex="1" parent="kA3QzVCFTja8NUtXptVE-152">
          <mxGeometry x="770" y="27" width="110" height="50" as="geometry" />
        </mxCell>
        <mxCell id="kA3QzVCFTja8NUtXptVE-199" value="" style="edgeStyle=orthogonalEdgeStyle;rounded=0;orthogonalLoop=1;jettySize=auto;html=1;entryX=0.5;entryY=0;entryDx=0;entryDy=0;" edge="1" parent="kA3QzVCFTja8NUtXptVE-152" source="kA3QzVCFTja8NUtXptVE-188" target="kA3QzVCFTja8NUtXptVE-191">
          <mxGeometry relative="1" as="geometry" />
        </mxCell>
        <mxCell id="kA3QzVCFTja8NUtXptVE-188" value="json字符串" style="html=1;whiteSpace=wrap;" vertex="1" parent="kA3QzVCFTja8NUtXptVE-152">
          <mxGeometry x="990" y="27" width="110" height="50" as="geometry" />
        </mxCell>
        <mxCell id="kA3QzVCFTja8NUtXptVE-191" value="聊天室信息(json)" style="swimlane;fontStyle=0;childLayout=stackLayout;horizontal=1;startSize=26;fillColor=none;horizontalStack=0;resizeParent=1;resizeParentMax=0;resizeLast=0;collapsible=1;marginBottom=0;whiteSpace=wrap;html=1;" vertex="1" parent="kA3QzVCFTja8NUtXptVE-152">
          <mxGeometry x="1160" y="113" width="140" height="130" as="geometry" />
        </mxCell>
        <mxCell id="kA3QzVCFTja8NUtXptVE-192" value="名称" style="text;strokeColor=none;fillColor=none;align=left;verticalAlign=top;spacingLeft=4;spacingRight=4;overflow=hidden;rotatable=0;points=[[0,0.5],[1,0.5]];portConstraint=eastwest;whiteSpace=wrap;html=1;" vertex="1" parent="kA3QzVCFTja8NUtXptVE-191">
          <mxGeometry y="26" width="140" height="26" as="geometry" />
        </mxCell>
        <mxCell id="kA3QzVCFTja8NUtXptVE-196" value="uid(云变量作品id)" style="text;strokeColor=none;fillColor=none;align=left;verticalAlign=top;spacingLeft=4;spacingRight=4;overflow=hidden;rotatable=0;points=[[0,0.5],[1,0.5]];portConstraint=eastwest;whiteSpace=wrap;html=1;" vertex="1" parent="kA3QzVCFTja8NUtXptVE-191">
          <mxGeometry y="52" width="140" height="26" as="geometry" />
        </mxCell>
        <mxCell id="kA3QzVCFTja8NUtXptVE-197" value="有无密码" style="text;strokeColor=none;fillColor=none;align=left;verticalAlign=top;spacingLeft=4;spacingRight=4;overflow=hidden;rotatable=0;points=[[0,0.5],[1,0.5]];portConstraint=eastwest;whiteSpace=wrap;html=1;" vertex="1" parent="kA3QzVCFTja8NUtXptVE-191">
          <mxGeometry y="78" width="140" height="26" as="geometry" />
        </mxCell>
        <mxCell id="kA3QzVCFTja8NUtXptVE-198" value="群主公钥作品id" style="text;strokeColor=none;fillColor=none;align=left;verticalAlign=top;spacingLeft=4;spacingRight=4;overflow=hidden;rotatable=0;points=[[0,0.5],[1,0.5]];portConstraint=eastwest;whiteSpace=wrap;html=1;" vertex="1" parent="kA3QzVCFTja8NUtXptVE-191">
          <mxGeometry y="104" width="140" height="26" as="geometry" />
        </mxCell>
        <mxCell id="kA3QzVCFTja8NUtXptVE-201" value="TODO" style="html=1;whiteSpace=wrap;fontSize=32;fontFamily=Lucida Console;horizontal=1;fontStyle=1" vertex="1" parent="kA3QzVCFTja8NUtXptVE-152">
          <mxGeometry x="450" y="189" width="110" height="50" as="geometry" />
        </mxCell>
        <mxCell id="kA3QzVCFTja8NUtXptVE-217" value="" style="edgeStyle=orthogonalEdgeStyle;rounded=0;orthogonalLoop=1;jettySize=auto;html=1;strokeColor=default;" edge="1" parent="kA3QzVCFTja8NUtXptVE-152" source="kA3QzVCFTja8NUtXptVE-211" target="kA3QzVCFTja8NUtXptVE-185">
          <mxGeometry relative="1" as="geometry" />
        </mxCell>
        <mxCell id="kA3QzVCFTja8NUtXptVE-224" value="" style="edgeStyle=orthogonalEdgeStyle;shape=connector;rounded=0;orthogonalLoop=1;jettySize=auto;html=1;align=center;verticalAlign=middle;fontFamily=Helvetica;fontSize=11;fontColor=default;labelBackgroundColor=default;endArrow=classic;" edge="1" parent="kA3QzVCFTja8NUtXptVE-152" source="kA3QzVCFTja8NUtXptVE-211" target="kA3QzVCFTja8NUtXptVE-196">
          <mxGeometry relative="1" as="geometry">
            <mxPoint x="985" y="255" as="targetPoint" />
          </mxGeometry>
        </mxCell>
        <mxCell id="kA3QzVCFTja8NUtXptVE-211" value="连接字符串" style="swimlane;fontStyle=0;childLayout=stackLayout;horizontal=1;startSize=26;fillColor=none;horizontalStack=0;resizeParent=1;resizeParentMax=0;resizeLast=0;collapsible=1;marginBottom=0;whiteSpace=wrap;html=1;" vertex="1" parent="kA3QzVCFTja8NUtXptVE-152">
          <mxGeometry x="765" y="177" width="140" height="156" as="geometry" />
        </mxCell>
        <mxCell id="kA3QzVCFTja8NUtXptVE-212" value="随机4字符hex字符串" style="text;strokeColor=none;fillColor=none;align=left;verticalAlign=top;spacingLeft=4;spacingRight=4;overflow=hidden;rotatable=0;points=[[0,0.5],[1,0.5]];portConstraint=eastwest;whiteSpace=wrap;html=1;" vertex="1" parent="kA3QzVCFTja8NUtXptVE-211">
          <mxGeometry y="26" width="140" height="26" as="geometry" />
        </mxCell>
        <mxCell id="kA3QzVCFTja8NUtXptVE-213" value="&quot;.&quot;" style="text;strokeColor=none;fillColor=none;align=left;verticalAlign=top;spacingLeft=4;spacingRight=4;overflow=hidden;rotatable=0;points=[[0,0.5],[1,0.5]];portConstraint=eastwest;whiteSpace=wrap;html=1;" vertex="1" parent="kA3QzVCFTja8NUtXptVE-211">
          <mxGeometry y="52" width="140" height="26" as="geometry" />
        </mxCell>
        <mxCell id="kA3QzVCFTja8NUtXptVE-214" value="随机4字符hex字符串" style="text;strokeColor=none;fillColor=none;align=left;verticalAlign=top;spacingLeft=4;spacingRight=4;overflow=hidden;rotatable=0;points=[[0,0.5],[1,0.5]];portConstraint=eastwest;whiteSpace=wrap;html=1;" vertex="1" parent="kA3QzVCFTja8NUtXptVE-211">
          <mxGeometry y="78" width="140" height="26" as="geometry" />
        </mxCell>
        <mxCell id="kA3QzVCFTja8NUtXptVE-215" value="&quot;_&quot;" style="text;strokeColor=none;fillColor=none;align=left;verticalAlign=top;spacingLeft=4;spacingRight=4;overflow=hidden;rotatable=0;points=[[0,0.5],[1,0.5]];portConstraint=eastwest;whiteSpace=wrap;html=1;" vertex="1" parent="kA3QzVCFTja8NUtXptVE-211">
          <mxGeometry y="104" width="140" height="26" as="geometry" />
        </mxCell>
        <mxCell id="kA3QzVCFTja8NUtXptVE-216" value="当前时间戳" style="text;strokeColor=none;fillColor=none;align=left;verticalAlign=top;spacingLeft=4;spacingRight=4;overflow=hidden;rotatable=0;points=[[0,0.5],[1,0.5]];portConstraint=eastwest;whiteSpace=wrap;html=1;" vertex="1" parent="kA3QzVCFTja8NUtXptVE-211">
          <mxGeometry y="130" width="140" height="26" as="geometry" />
        </mxCell>
        <mxCell id="kA3QzVCFTja8NUtXptVE-225" value="云变量" style="swimlane;fontStyle=0;childLayout=stackLayout;horizontal=1;startSize=26;fillColor=none;horizontalStack=0;resizeParent=1;resizeParentMax=0;resizeLast=0;collapsible=1;marginBottom=0;whiteSpace=wrap;html=1;fontFamily=Helvetica;fontSize=11;fontColor=default;labelBackgroundColor=default;" vertex="1" parent="kA3QzVCFTja8NUtXptVE-152">
          <mxGeometry x="1410" y="119" width="140" height="78" as="geometry" />
        </mxCell>
        <mxCell id="kA3QzVCFTja8NUtXptVE-226" value="作品id" style="text;strokeColor=none;fillColor=none;align=left;verticalAlign=top;spacingLeft=4;spacingRight=4;overflow=hidden;rotatable=0;points=[[0,0.5],[1,0.5]];portConstraint=eastwest;whiteSpace=wrap;html=1;fontFamily=Helvetica;fontSize=11;fontColor=default;labelBackgroundColor=default;" vertex="1" parent="kA3QzVCFTja8NUtXptVE-225">
          <mxGeometry y="26" width="140" height="26" as="geometry" />
        </mxCell>
        <mxCell id="kA3QzVCFTja8NUtXptVE-228" value="变量名列表" style="text;strokeColor=none;fillColor=none;align=left;verticalAlign=top;spacingLeft=4;spacingRight=4;overflow=hidden;rotatable=0;points=[[0,0.5],[1,0.5]];portConstraint=eastwest;whiteSpace=wrap;html=1;fontFamily=Helvetica;fontSize=11;fontColor=default;labelBackgroundColor=default;" vertex="1" parent="kA3QzVCFTja8NUtXptVE-225">
          <mxGeometry y="52" width="140" height="26" as="geometry" />
        </mxCell>
        <mxCell id="kA3QzVCFTja8NUtXptVE-229" value="" style="edgeStyle=orthogonalEdgeStyle;shape=connector;rounded=0;orthogonalLoop=1;jettySize=auto;html=1;align=center;verticalAlign=middle;fontFamily=Helvetica;fontSize=11;fontColor=default;labelBackgroundColor=default;endArrow=classic;" edge="1" parent="kA3QzVCFTja8NUtXptVE-152" source="kA3QzVCFTja8NUtXptVE-196" target="kA3QzVCFTja8NUtXptVE-226">
          <mxGeometry relative="1" as="geometry" />
        </mxCell>
      </root>
    </mxGraphModel>
  </diagram>
</mxfile>
